<?xml version="1.0" standalone="no"?>
<!DOCTYPE svg PUBLIC "-//W3C//DTD SVG 20010904//EN"
 "http://www.w3.org/TR/2001/REC-SVG-20010904/DTD/svg10.dtd">
<svg version="1.0" xmlns="http://www.w3.org/2000/svg"
 width="256.000000pt" height="256.000000pt" viewBox="0 0 256.000000 256.000000"
 preserveAspectRatio="xMidYMid meet">
<metadata>
Created by potrace 1.16, written by Peter Selinger 2001-2019
</metadata>
<g transform="translate(0.000000,256.000000) scale(0.100000,-0.100000)"
fill="#000000" stroke="none">
<path d="M124 2541 c3 -5 -3 -7 -14 -4 -11 3 -32 -2 -46 -12 -56 -37 -54 15
-54 -1251 0 -1039 2 -1170 16 -1199 32 -69 -49 -65 1264 -62 1303 2 1214 -2
1245 63 13 28 15 181 15 1191 0 763 -4 1171 -10 1195 -7 23 -23 46 -43 60
l-32 23 -1173 3 c-703 1 -1171 -2 -1168 -7z m1486 -504 c4 -5 16 2 26 15 20
25 71 32 66 9 -4 -19 16 -40 35 -37 9 2 22 11 29 21 8 10 14 13 14 7 0 -7 5
-12 11 -12 20 0 56 -35 51 -50 -5 -13 -3 -13 11 -1 16 12 21 9 18 -11 0 -5 3
-8 9 -8 5 0 36 -25 67 -56 32 -31 52 -53 46 -49 -7 3 -13 2 -13 -2 0 -5 10
-13 21 -18 12 -6 20 -14 18 -18 -2 -5 4 -13 13 -18 13 -7 15 -15 8 -40 -12
-42 -24 -52 -16 -14 4 21 0 39 -14 60 -12 18 -20 24 -21 15 -1 -8 -7 3 -14 25
-10 29 -14 34 -14 17 -1 -13 -5 -20 -11 -17 -7 4 -6 14 1 28 10 22 10 22 -7 2
-16 -19 -16 -19 -10 10 5 22 4 26 -4 15 -8 -13 -10 -13 -10 1 0 9 -10 24 -22
35 -14 13 -19 14 -14 4 4 -8 -1 -5 -11 6 -10 12 -26 20 -36 19 -14 -3 -17 1
-12 18 5 19 4 19 -9 -3 -10 -16 -15 -20 -16 -9 0 8 6 21 13 28 10 11 9 12 -2
6 -9 -5 -12 -4 -7 3 3 6 -1 9 -11 8 -18 -3 -20 -6 -22 -52 0 -14 -5 -23 -9
-20 -5 3 -8 18 -7 33 2 19 1 20 -2 5 -2 -12 -8 -20 -13 -17 -4 3 -6 15 -4 28
l5 22 -10 -22 c-6 -13 -13 -23 -16 -23 -4 0 -3 10 0 23 4 15 3 18 -3 8 -12
-16 -27 3 -16 21 4 7 3 8 -5 4 -6 -4 -11 -4 -10 1 1 4 1 15 0 23 -1 12 -4 11
-12 -3 -6 -9 -14 -15 -20 -12 -5 3 -6 0 -3 -8 3 -8 1 -18 -5 -22 -6 -3 -11 -1
-11 6 0 7 -7 4 -16 -7 -11 -13 -14 -14 -11 -3 3 9 -1 16 -8 16 -7 0 -11 -6 -8
-13 2 -6 0 -15 -6 -19 -6 -3 -11 0 -11 7 -1 7 -8 2 -16 -12 -14 -23 -15 -23
-11 -3 4 17 1 21 -14 18 -12 -3 -17 0 -13 7 5 7 2 8 -6 3 -9 -6 -11 -4 -5 5 6
9 4 11 -4 5 -9 -5 -12 -2 -9 11 3 19 23 23 23 5 0 -13 13 -25 30 -27 13 -2 53
33 48 42 -2 2 -2 10 -2 17 1 6 3 3 6 -8 3 -11 8 -24 13 -28z m-868 -100 c-7
-18 -8 -68 -3 -93 0 -4 7 -1 15 5 9 8 16 8 20 2 4 -5 14 -8 24 -6 14 2 18 -3
17 -23 -1 -30 13 -55 26 -46 5 3 6 -1 3 -9 -3 -8 -1 -18 5 -21 12 -8 53 47 49
66 -2 8 7 13 28 12 26 0 30 3 32 29 1 16 9 44 16 62 8 18 14 35 13 37 -1 2 7
-6 18 -18 11 -12 27 -20 36 -19 16 3 56 -52 45 -62 -3 -4 -6 0 -6 8 0 12 -2
11 -11 -1 -9 -12 -10 -11 -6 7 3 13 0 26 -5 30 -7 4 -8 1 -4 -8 4 -8 1 -6 -6
3 -11 15 -13 15 -26 0 -13 -16 -13 -16 -8 0 3 10 0 20 -6 24 -6 4 -8 3 -5 -2
3 -6 1 -16 -5 -24 -7 -11 -8 -5 -4 20 4 25 3 30 -4 19 -5 -9 -12 -36 -14 -60
-4 -36 -4 -38 3 -14 8 29 14 20 12 -20 -1 -18 0 -18 9 3 5 12 12 22 15 22 4 0
3 -10 0 -22 -5 -18 -4 -20 4 -8 9 13 11 12 12 -5 l0 -20 9 20 c8 18 9 18 10
-5 2 -21 3 -22 7 -5 8 34 21 39 20 7 -1 -17 2 -31 7 -31 5 1 13 -5 17 -13 7
-10 9 -10 10 2 0 11 2 10 8 -3 4 -10 11 -18 15 -17 5 1 13 -4 17 -12 7 -10 9
-10 10 2 0 10 3 8 9 -5 l9 -20 1 20 c2 18 3 17 8 -3 4 -13 11 -23 16 -22 5 1
13 -5 18 -14 5 -9 13 -14 19 -11 5 4 9 0 9 -7 0 -11 2 -10 9 0 6 10 10 8 14
-8 3 -12 10 -19 16 -15 6 3 11 0 11 -7 0 -11 2 -10 9 0 6 10 10 8 14 -8 3 -12
10 -19 16 -15 6 3 11 0 11 -7 0 -11 2 -10 9 0 6 10 10 8 14 -8 3 -12 10 -19
16 -15 6 3 11 1 11 -6 0 -7 7 -4 15 7 15 19 15 19 12 -1 -1 -11 2 -21 7 -22 5
-1 13 -7 17 -15 7 -10 9 -10 10 2 0 10 3 9 10 -5 l9 -20 -1 20 c-2 41 4 49 10
12 3 -21 10 -37 15 -36 5 0 13 -5 17 -13 7 -10 9 -10 9 2 1 8 5 5 11 -8 5 -13
13 -20 19 -17 5 3 10 0 10 -7 0 -11 2 -10 9 0 6 10 10 8 14 -8 3 -12 10 -19
16 -15 6 3 11 0 11 -7 0 -11 2 -10 9 0 6 10 10 8 14 -8 3 -12 10 -19 16 -15 6
3 11 0 11 -7 0 -11 2 -10 9 0 6 10 10 8 14 -8 3 -12 10 -19 16 -15 6 3 11 0
11 -7 0 -11 2 -10 9 0 6 10 10 8 15 -10 6 -23 6 -23 22 -3 16 20 16 20 11 -3
-3 -12 -1 -20 4 -16 5 3 9 -1 9 -8 0 -10 2 -10 9 0 6 10 10 6 16 -15 l8 -28
14 34 c8 18 16 31 19 28 3 -3 -2 -21 -10 -41 -8 -19 -11 -38 -7 -40 14 -9 5
-50 -18 -88 -24 -40 -37 -50 -27 -20 6 16 5 16 -7 0 -8 -10 -17 -15 -21 -11
-4 4 -9 -3 -13 -16 -4 -17 -8 -20 -15 -9 -8 10 -9 9 -4 -4 3 -10 1 -20 -4 -23
-6 -4 -10 2 -11 12 0 16 -1 16 -9 -2 -5 -11 -9 -33 -10 -50 -1 -25 -3 -27 -9
-10 -5 11 -4 30 0 43 6 15 5 21 -1 17 -6 -3 -10 -14 -10 -23 0 -15 -2 -15 -10
-2 -7 11 -10 11 -10 2 0 -7 -5 -10 -10 -7 -6 4 -10 3 -9 -2 1 -4 1 -15 -1 -23
-1 -11 -4 -9 -10 5 -7 16 -9 17 -9 3 -1 -9 -6 -20 -13 -24 -8 -5 -9 -1 -5 12
7 18 6 18 -6 2 -8 -10 -17 -15 -21 -11 -4 4 -9 -3 -13 -16 -4 -17 -8 -19 -15
-9 -5 8 -6 2 -3 -17 l6 -30 -15 25 c-8 14 -15 19 -16 12 0 -7 -4 -11 -9 -7 -6
3 -14 -3 -20 -12 -6 -10 -11 -14 -11 -9 0 5 -7 2 -17 -5 -9 -8 -19 -12 -22
-10 -3 2 -12 -7 -18 -20 -8 -14 -13 -18 -13 -9 0 13 -1 13 -10 0 -5 -8 -10
-10 -10 -5 0 6 -12 -3 -26 -20 -19 -22 -25 -25 -20 -10 6 20 6 20 -9 1 -8 -11
-15 -16 -15 -10 -1 5 -12 -4 -26 -21 -19 -22 -25 -25 -20 -10 l6 20 -15 -20
c-9 -11 -19 -19 -23 -17 -4 2 -10 -11 -15 -27 -9 -38 -22 -41 -13 -3 4 17 3
22 -2 14 -5 -8 -13 -12 -18 -10 -5 1 -10 -12 -12 -30 -2 -18 -7 -30 -12 -27
-4 3 -7 13 -5 23 1 9 0 11 -2 3 -4 -12 -6 -12 -14 0 -7 11 -9 11 -9 1 0 -7 -5
-10 -11 -7 -6 4 -13 -3 -16 -15 -4 -17 -8 -19 -15 -8 -7 10 -9 10 -7 -2 3 -32
-3 -44 -11 -20 -8 25 -8 25 -9 2 -1 -13 -5 -20 -11 -17 -6 4 -7 12 -3 18 3 7
-4 3 -16 -8 -13 -11 -26 -19 -30 -18 -3 1 -12 -8 -19 -20 l-13 -22 4 23 c3 12
1 20 -4 16 -5 -3 -9 -12 -9 -20 0 -8 -4 -14 -9 -14 -5 0 -8 8 -6 18 1 9 0 11
-2 4 -3 -7 -9 -10 -14 -6 -5 3 -6 10 -3 16 4 7 2 8 -4 4 -7 -4 -12 0 -13 11 0
16 -1 16 -9 -2 -10 -22 -11 -21 -14 16 -2 14 -6 32 -11 39 -11 17 -11 73 0 90
5 9 4 11 -3 6 -16 -10 -15 7 1 23 10 11 10 13 0 7 -8 -5 -13 -1 -13 9 0 9 5
13 11 9 8 -4 8 -1 1 13 -6 11 -7 25 -2 33 5 9 5 20 -2 27 -8 10 -8 21 1 39 6
15 7 23 1 19 -13 -8 -13 -3 0 30 7 17 7 24 0 20 -6 -3 -10 -2 -10 4 0 5 5 13
11 17 8 4 8 9 0 17 -15 15 -14 30 1 21 7 -4 8 -3 4 5 -4 6 -12 9 -17 6 -5 -4
-9 1 -9 10 0 9 4 14 9 10 5 -3 12 -1 15 4 4 5 2 13 -4 16 -8 5 -7 11 1 21 7 9
8 14 3 13 -22 -4 -24 3 -9 34 14 28 14 30 0 13 -13 -17 -15 -17 -15 -4 0 9 5
20 11 23 6 4 8 13 5 21 -3 7 -1 16 5 20 7 4 6 10 -1 19 -8 9 -8 15 0 20 7 4 7
12 0 25 -7 13 -7 21 1 26 8 4 8 9 0 17 -15 15 -14 30 2 21 9 -5 9 -4 0 6 -9 9
-9 19 -2 34 10 20 10 20 -5 2 -16 -20 -21 -11 -10 18 3 9 11 13 18 9 7 -4 7
-2 -1 7 -9 9 -9 19 -2 33 8 14 8 18 0 13 -6 -4 -11 -3 -11 3 0 5 5 13 11 17 7
4 7 10 1 16 -6 6 -7 22 -2 39 8 28 -2 49 -14 30 -10 -15 -41 -5 -40 12 1 9 -3
15 -9 14 -6 -1 -11 13 -12 31 -1 18 -5 35 -9 39 -3 3 -4 -8 -2 -26 2 -17 0
-34 -5 -37 -5 -3 -10 12 -11 33 l-1 38 -4 -38 c-2 -20 -8 -35 -12 -32 -5 2 -7
19 -5 37 4 30 3 31 -12 12 -14 -17 -15 -17 -10 -1 3 10 2 16 -3 13 -5 -3 -8
22 -6 57 1 34 0 54 -2 44 -4 -15 -7 -16 -21 -5 -13 11 -15 11 -8 -2 4 -8 -1
-6 -11 6 l-18 21 -27 -39 c-16 -21 -28 -43 -29 -50 0 -7 -5 -4 -10 7 -8 17 -8
16 -4 -7 3 -15 1 -30 -5 -33 -5 -3 -10 -1 -10 6 0 7 -6 5 -14 -6 -7 -10 -11
-26 -9 -36 3 -9 -1 -20 -7 -24 -9 -5 -10 -1 -6 16 6 21 5 21 -9 -4 -9 -16 -21
-25 -27 -21 -6 4 -8 3 -5 -3 4 -6 -4 -30 -17 -54 -14 -24 -22 -47 -19 -52 4
-6 1 -7 -7 -2 -8 5 -11 4 -7 -1 3 -6 2 -16 -2 -23 -6 -10 -10 -9 -14 3 -3 8 0
22 8 30 8 7 11 16 8 20 -4 3 -1 6 6 6 7 0 9 5 6 10 -3 6 -1 10 5 10 6 0 8 5 5
10 -3 6 -1 10 6 10 7 0 9 3 6 6 -10 11 13 45 25 38 8 -5 9 -1 5 10 -4 10 -1
19 8 22 8 4 13 10 10 15 -3 4 6 16 20 25 14 9 25 22 25 28 0 15 110 124 111
111 1 -6 2 -14 4 -20 1 -5 3 -14 3 -19 3 -17 32 17 33 38 0 21 0 21 9 -2 5
-12 6 -32 2 -45z m1094 -6 c-8 -12 16 -29 37 -26 9 2 15 -1 12 -6 -4 -5 -2
-16 3 -26 6 -11 5 -27 -3 -47 -12 -28 -11 -34 7 -56 31 -38 60 -33 63 10 7 81
5 77 16 52 5 -13 13 -21 18 -17 15 9 32 -31 25 -59 -9 -38 15 -42 31 -4 8 19
14 25 15 16 0 -10 5 -18 12 -18 6 0 8 -3 5 -7 -4 -3 0 -15 10 -25 9 -10 12
-18 7 -18 -5 0 -3 -4 4 -9 11 -7 11 -9 -1 -14 -12 -4 -15 0 -12 15 3 11 1 18
-2 14 -4 -4 -13 6 -19 21 l-13 28 6 -30 c6 -26 4 -28 -9 -17 -13 10 -18 10
-24 1 -5 -9 -10 -7 -16 7 -6 14 -7 11 -3 -9 4 -20 2 -27 -6 -22 -10 7 -9 28 6
85 5 21 3 20 -9 -5 -16 -33 -21 -20 -7 18 7 17 6 24 -4 24 -7 0 -11 -9 -8 -21
3 -20 3 -20 -5 -1 -6 14 -9 7 -9 -26 0 -25 -5 -54 -12 -64 -11 -18 -11 -17 -8
10 2 17 2 24 0 17 -3 -7 -9 -10 -14 -6 -5 3 -6 11 -2 17 4 7 0 6 -10 -2 -15
-12 -17 -11 -18 5 0 15 -2 14 -10 -5 -5 -13 -12 -21 -15 -18 -3 3 -1 14 5 25
14 27 14 41 0 22 -9 -12 -10 -11 -5 5 6 20 6 20 -9 1 -15 -19 -15 -19 -15 3 0
12 4 20 8 17 5 -3 9 0 9 7 0 7 3 30 7 52 5 30 3 36 -5 25 -9 -12 -10 -11 -6 6
2 12 -1 21 -8 21 -7 0 -10 -8 -7 -20 3 -14 1 -18 -7 -13 -6 4 -9 11 -6 16 3 4
-2 13 -9 19 -16 14 -17 -3 -2 -28 6 -9 5 -12 0 -8 -6 3 -9 -7 -8 -24 1 -16 -2
-26 -7 -23 -5 3 -6 -3 -3 -13 5 -15 4 -16 -6 -3 -10 13 -11 13 -6 -2 3 -10 1
-20 -4 -23 -6 -4 -10 3 -10 14 0 11 5 23 10 26 6 4 8 10 5 15 -3 5 -1 11 4 14
5 4 7 18 5 32 -3 17 2 34 12 45 18 20 29 26 20 10z m-356 -33 c0 -17 2 -23 12
-35 6 -7 7 -13 4 -13 -4 0 2 -13 13 -29 12 -16 21 -37 21 -48 0 -15 -2 -15 -9
-3 -6 8 -8 17 -5 21 2 4 -1 11 -7 15 -7 4 -9 3 -5 -4 3 -6 1 -14 -5 -18 -9 -5
-10 1 -5 22 5 23 4 26 -5 14 -10 -13 -10 -13 -6 0 2 8 0 24 -5 35 -8 19 -8 19
-4 -1 2 -12 -1 -28 -6 -35 -6 -10 -8 -3 -7 21 2 59 0 68 -12 47 -6 -9 -14 -15
-18 -13 -4 3 -6 -13 -4 -35 3 -26 1 -39 -6 -35 -6 4 -8 14 -5 24 5 14 4 14 -4
2 -6 -8 -8 -18 -6 -22 3 -5 0 -7 -8 -6 -7 2 -12 -3 -10 -10 1 -8 -2 -11 -9 -6
-8 4 -9 3 -5 -4 4 -7 4 -17 0 -23 -4 -8 -9 -7 -15 2 -7 11 -9 11 -9 -1 0 -13
-1 -13 -11 0 -9 13 -10 13 -6 0 2 -8 10 -15 18 -15 9 0 14 -11 13 -31 -1 -19
4 -31 12 -31 7 0 11 3 9 7 -2 3 1 12 6 20 8 11 9 8 6 -12 -2 -17 0 -25 6 -21
6 3 7 1 3 -5 -3 -6 -2 -13 3 -16 5 -3 7 11 5 32 l-4 37 13 -30 c14 -29 14 -30
21 -7 4 13 5 42 2 65 l-5 42 13 -40 c8 -25 10 -48 5 -63 -7 -17 -6 -21 3 -16
7 5 8 3 3 -6 -5 -9 -4 -11 4 -6 7 5 10 2 9 -5 -2 -7 4 -13 12 -14 8 0 16 -10
18 -22 1 -13 3 -33 5 -45 1 -11 10 -22 20 -24 9 -1 15 1 13 5 -3 4 0 13 5 21
8 11 9 8 6 -12 -2 -15 0 -25 4 -22 11 7 11 -7 0 -24 -6 -11 -9 -9 -14 7 -3 14
-11 19 -26 16 -18 -3 -21 1 -21 26 0 35 -17 72 -29 64 -5 -2 -11 5 -14 17 -5
19 -8 20 -23 8 -25 -21 -42 -20 -48 3 -4 16 -8 18 -18 9 -11 -9 -14 -5 -16 21
-4 44 -19 56 -31 24 -6 -15 -14 -27 -17 -27 -4 0 -4 3 -1 7 4 3 -3 17 -15 30
-18 19 -19 25 -8 36 10 10 12 9 7 -5 -3 -10 -1 -20 5 -24 6 -4 8 -3 5 2 -3 6
-1 16 4 24 8 11 9 8 6 -13 -3 -19 -1 -25 6 -18 5 5 6 22 3 37 -6 22 -9 25 -17
13 -9 -11 -10 -12 -7 0 6 20 35 22 42 4 5 -12 9 -13 21 -3 8 7 15 19 15 27 0
8 4 12 10 8 8 -5 38 40 41 62 4 22 12 29 34 29 14 0 25 -4 25 -8z m357 -75
c-5 -26 -3 -33 3 -23 5 8 10 25 10 38 0 13 4 21 10 17 9 -6 6 -24 -12 -62 -13
-26 -3 -57 14 -47 8 5 9 2 5 -10 -9 -22 1 -39 16 -29 24 15 38 11 48 -13 11
-31 26 -23 38 19 9 31 9 31 10 5 1 -15 6 -30 11 -33 6 -3 10 -12 10 -18 0 -7
-4 -6 -11 3 -8 12 -9 10 -4 -7 3 -13 4 -23 0 -23 -3 0 -10 10 -15 23 -7 18 -9
18 -9 4 -1 -12 -5 -15 -13 -10 -7 4 -17 8 -23 8 -5 0 -9 12 -8 25 1 14 -1 19
-4 11 -4 -11 -7 -11 -13 0 -6 8 -12 -2 -20 -29 -13 -50 -23 -55 -17 -9 2 17 2
24 0 14 -2 -9 -9 -15 -14 -12 -5 4 -5 13 0 23 5 10 5 25 0 37 -9 19 -9 19 -5
-1 2 -12 0 -28 -5 -35 -9 -14 -14 23 -11 81 1 24 1 24 -10 -4 -8 -21 -13 -25
-19 -15 -7 12 -9 11 -9 -1 0 -13 -1 -13 -10 0 -7 11 -9 4 -5 -24 3 -24 1 -36
-5 -30 -5 5 -10 26 -12 46 -1 26 -5 34 -13 28 -7 -6 -14 -8 -17 -5 -2 3 -4
-17 -2 -45 1 -31 -2 -49 -9 -47 -6 1 -12 -4 -13 -10 -4 -34 -7 -36 -14 -13 -8
25 -8 25 -9 2 -1 -13 -5 -21 -11 -17 -5 3 -6 13 -3 23 5 14 2 13 -11 -3 -14
-16 -17 -17 -12 -3 3 10 0 20 -6 24 -7 5 -8 2 -3 -6 6 -9 4 -11 -4 -6 -7 5
-10 15 -7 23 4 9 2 11 -6 7 -7 -5 -8 -3 -3 6 5 8 4 11 -2 7 -5 -3 -10 -1 -11
6 -1 7 -4 25 -8 41 -5 22 -4 27 6 21 8 -5 11 -4 6 3 -3 6 0 26 8 44 12 26 14
28 10 7 -3 -14 -6 -32 -7 -40 -2 -8 -6 -20 -10 -26 -10 -16 1 -35 15 -27 7 4
8 2 4 -4 -4 -6 1 -23 10 -37 12 -19 20 -23 29 -15 9 8 15 8 20 0 9 -14 28 -1
21 16 -3 7 -1 16 5 20 5 3 7 15 4 25 -7 21 12 52 26 44 4 -3 12 3 18 12 9 16
10 16 11 -4 1 -62 55 -12 59 55 1 6 4 12 7 12 4 0 4 -17 1 -37z m-967 -113
c-5 -18 -5 -32 1 -36 6 -3 6 -10 1 -17 -5 -7 -8 -23 -7 -37 1 -14 -2 -33 -7
-43 -5 -10 -6 -26 -2 -35 4 -9 6 -21 5 -26 -1 -4 3 -14 9 -21 8 -9 8 -15 0
-20 -7 -4 -7 -12 0 -25 7 -13 7 -21 0 -25 -8 -5 -8 -11 0 -20 8 -9 8 -15 0
-20 -6 -3 -8 -11 -4 -16 3 -5 1 -16 -5 -22 -8 -10 -9 -49 -2 -74 1 -2 1 -6 2
-10 0 -5 6 -14 12 -22 9 -12 9 -13 -1 -7 -20 12 -26 -21 -9 -48 9 -13 13 -27
10 -30 -10 -10 -12 -126 -2 -132 5 -3 5 -13 1 -22 -13 -25 -7 -173 8 -202 7
-14 9 -21 4 -17 -4 4 -14 -3 -21 -15 -7 -13 -12 -17 -13 -10 0 7 5 23 11 34 6
11 7 18 2 15 -5 -3 -9 13 -9 36 -1 23 -4 64 -7 92 -4 32 -3 45 3 35 7 -11 8
-8 6 11 -1 13 -6 30 -10 37 -4 7 -5 16 -1 21 3 5 7 29 9 52 3 28 1 38 -5 28
-6 -10 -8 -7 -7 13 1 15 5 25 9 23 3 -3 4 8 1 23 -5 22 -7 23 -10 7 -2 -11 -9
-24 -14 -30 -7 -7 -8 -2 -2 15 4 14 7 40 7 58 -2 26 1 31 11 23 9 -8 13 -7 13
4 0 8 -5 11 -10 8 -6 -4 -7 -1 -2 7 5 9 4 11 -3 6 -8 -5 -10 7 -8 41 5 62 5
61 16 43 6 -9 10 -10 10 -3 0 6 -4 15 -10 18 -5 3 -10 13 -10 21 0 8 4 13 9 9
11 -6 8 122 -3 132 -3 3 -6 -4 -6 -16 0 -12 -4 -19 -10 -16 -6 4 -7 13 -1 24
6 10 8 29 5 42 -5 20 -4 21 6 9 10 -13 11 -12 6 3 -3 10 -2 16 3 13 11 -7 6
31 -8 64 -10 25 -11 25 -8 -5 1 -20 -2 -29 -11 -27 -8 1 -11 -2 -7 -8 4 -6 1
-9 -7 -8 -8 2 -13 -7 -12 -24 1 -15 -2 -25 -7 -23 -4 3 -5 -5 -1 -17 3 -14 2
-19 -7 -14 -6 4 -9 11 -7 15 3 4 -1 8 -9 8 -8 0 -12 -4 -9 -8 2 -4 -1 -11 -7
-15 -9 -5 -10 0 -7 14 4 13 2 20 -3 16 -6 -3 -7 6 -3 23 9 38 14 42 14 10 0
-14 4 -28 9 -32 14 -8 26 16 22 45 -2 14 0 22 5 18 10 -10 34 11 34 29 0 11
49 83 57 83 1 0 -2 -13 -7 -30z m-144 -127 c1 -49 11 -68 28 -54 9 7 16 7 24
-1 14 -14 31 25 26 62 -2 14 -1 19 2 12 4 -8 12 -5 26 10 l20 23 -17 -28 c-9
-16 -14 -35 -11 -44 3 -8 2 -23 -4 -33 -7 -13 -6 -21 4 -29 7 -6 15 -8 18 -5
11 10 6 -71 -4 -83 -6 -7 -8 -19 -5 -27 3 -8 3 -17 -1 -21 -4 -4 -8 -46 -9
-93 -1 -48 -3 -96 -5 -107 -2 -12 2 -19 9 -18 7 2 10 -3 7 -10 -2 -7 -1 -24 4
-38 6 -14 6 -34 0 -48 -5 -15 -5 -28 1 -34 6 -6 7 -17 2 -26 -5 -9 -7 -32 -5
-51 8 -74 11 -219 4 -215 -4 2 -7 29 -6 59 1 35 -2 52 -9 48 -6 -4 -6 0 1 9 9
12 11 34 4 42 -1 1 -3 27 -5 58 -1 30 -4 60 -7 65 -2 5 -5 23 -6 39 0 25 1 26
7 10 7 -15 8 -11 8 17 -1 24 -4 33 -9 25 -5 -7 -7 -1 -4 16 3 15 1 25 -4 22
-8 -5 -7 31 3 73 3 12 3 21 -1 18 -9 -5 -9 135 -1 149 4 6 5 18 4 28 -2 10 1
14 7 11 7 -5 8 -2 3 6 -5 8 -4 11 2 7 6 -4 9 6 8 26 -1 20 -6 31 -14 29 -7 -1
-9 2 -5 9 4 7 3 9 -4 5 -7 -4 -9 1 -7 15 2 12 1 18 -3 15 -4 -4 -8 -12 -8 -17
-3 -22 -6 -23 -14 -4 -8 18 -9 18 -9 2 -1 -10 -6 -15 -11 -12 -6 4 -8 10 -6
14 3 4 -1 8 -9 8 -8 0 -12 -4 -9 -8 2 -4 -1 -11 -7 -15 -9 -5 -10 0 -7 14 4
12 3 20 -2 17 -4 -3 -7 19 -5 48 1 28 0 43 -3 33 -3 -15 -6 -16 -13 -5 -7 10
-8 6 -3 -12 3 -16 1 -30 -6 -34 -9 -5 -10 -1 -6 16 l7 24 -14 -24 c-14 -23
-15 -23 -19 -5 -3 10 -4 -2 -3 -29 1 -26 -1 -50 -6 -53 -5 -3 -10 5 -10 18
l-2 23 -4 -23 c-2 -12 -8 -20 -13 -17 -5 3 -6 13 -3 23 5 14 2 13 -11 -3 -17
-20 -18 -20 -11 0 3 11 3 16 -1 12 -4 -4 -14 -1 -22 6 -13 10 -14 9 -7 -2 5
-10 4 -12 -3 -7 -7 4 -12 17 -12 29 0 18 2 19 10 7 5 -8 14 -16 20 -16 5 -1
11 -2 13 -4 1 -1 10 -3 19 -5 20 -4 32 11 33 40 0 11 6 19 13 17 7 -1 17 9 23
22 18 38 44 26 45 -21z m96 -108 c10 10 5 -31 -6 -44 -6 -8 -12 -22 -12 -33
-1 -10 -3 -19 -4 -20 -7 -7 -4 -160 2 -164 5 -3 4 -14 -2 -24 -10 -19 -10 -45
1 -65 3 -5 4 -32 3 -60 -1 -27 1 -54 4 -59 3 -5 6 -35 7 -65 2 -31 3 -56 5
-56 7 0 7 -36 -1 -40 -4 -3 -5 -16 0 -28 4 -12 7 -35 6 -52 -1 -16 2 -36 8
-43 5 -7 7 -15 3 -19 -3 -3 -6 0 -6 8 0 12 -2 12 -9 0 -6 -9 -9 3 -10 35 -1
91 -9 193 -16 203 -3 6 -1 21 5 33 11 22 11 23 -5 3 -16 -19 -16 -18 -10 25
14 108 14 116 -1 95 -13 -18 -14 -18 -14 4 0 12 3 20 8 18 4 -3 8 18 8 47 1
33 -1 42 -5 26 -4 -14 -10 -20 -13 -14 -4 5 -3 16 2 23 4 8 6 27 3 43 -2 17 0
28 5 25 5 -4 7 4 6 16 -1 12 -3 22 -4 22 -2 0 -4 10 -5 22 -1 12 1 20 5 18 5
-3 6 5 2 17 -5 21 -5 21 -15 -3 -6 -13 -9 -31 -8 -39 1 -11 -3 -10 -14 4 -10
13 -15 15 -15 6 0 -7 -3 -10 -7 -6 -4 3 10 24 31 45 21 21 37 47 36 57 -5 43
-1 57 13 45 8 -6 16 -9 19 -6z m-282 -25 c3 -1 7 -2 10 -2 3 0 6 -11 5 -26 0
-15 5 -27 10 -27 6 0 15 -4 22 -8 16 -10 26 9 18 36 -5 17 -4 19 4 7 6 -8 11
-25 11 -37 0 -17 -5 -21 -20 -18 -11 2 -18 0 -15 -5 3 -5 0 -12 -6 -16 -9 -5
-10 0 -7 14 8 31 0 27 -13 -4 -5 -15 -12 -24 -15 -21 -3 3 -1 15 6 26 8 17 8
21 -2 19 -9 -2 -12 7 -11 27 l3 30 -14 -30 c-8 -16 -15 -24 -15 -17 -1 7 4 23
10 35 10 21 10 21 -6 2 -10 -13 -14 -31 -10 -55 3 -19 0 -42 -6 -50 -8 -12 -9
-8 -5 15 l5 30 -12 -27 c-10 -22 -16 -25 -25 -16 -7 7 -12 10 -13 8 -5 -28 -4
-68 2 -64 4 2 8 -4 8 -13 0 -10 2 -39 4 -65 2 -30 -1 -45 -8 -41 -6 4 -6 1 1
-6 12 -13 7 -58 -7 -66 -4 -3 -6 12 -4 32 4 35 4 36 -4 8 -8 -28 -16 -18 -11
15 1 11 -3 9 -15 -5 -13 -16 -16 -17 -11 -3 3 10 0 20 -6 24 -7 5 -8 2 -3 -6
5 -7 4 -11 -1 -8 -5 4 -10 -5 -11 -19 0 -15 2 -21 6 -14 5 7 8 0 9 -18 0 -17
-4 -31 -10 -31 -5 0 -8 7 -5 15 4 8 2 17 -4 21 -5 3 -8 19 -5 35 2 16 0 29 -5
29 -11 0 -12 37 0 44 4 3 13 -6 20 -21 6 -14 15 -23 18 -19 3 3 12 1 19 -5 19
-16 26 5 19 61 -3 25 -7 62 -9 83 -2 20 2 58 10 85 l14 47 -5 -42 c-10 -80 26
-59 40 24 6 39 14 45 45 33z m103 -63 c-3 -13 2 -41 11 -62 14 -32 18 -35 31
-25 8 7 15 22 15 34 0 17 2 18 10 6 5 -8 14 -16 20 -16 5 -1 12 -3 15 -4 3 -1
11 -3 18 -4 6 -1 10 -8 8 -16 -2 -8 -5 -31 -6 -51 -1 -19 -5 -41 -9 -47 -3 -6
-2 -14 4 -17 6 -4 10 -28 8 -53 -2 -30 1 -46 8 -45 8 1 8 -14 2 -53 -6 -37 -5
-61 3 -75 6 -12 13 -53 15 -93 2 -39 5 -97 7 -129 2 -32 0 -60 -3 -62 -7 -4
-12 47 -13 118 0 21 -3 33 -7 26 -4 -6 -7 2 -7 19 1 17 5 28 9 26 4 -2 3 10
-2 27 -5 18 -7 35 -5 40 3 4 2 15 -1 24 -6 13 -9 14 -16 3 -5 -8 -6 -2 -3 17
3 17 8 42 11 57 3 15 0 37 -6 49 -15 26 -24 80 -11 60 6 -9 9 -5 9 14 0 16 -4
22 -8 15 -6 -9 -9 -9 -15 -1 -4 7 -2 17 3 24 13 17 22 58 11 51 -11 -7 -11 7
0 25 5 8 7 20 4 28 -4 11 -8 10 -20 -4 -13 -16 -14 -16 -9 -1 3 10 0 20 -6 24
-7 5 -8 2 -3 -6 6 -9 4 -11 -4 -5 -10 6 -11 3 -1 -15 6 -12 9 -24 6 -27 -3 -3
-10 5 -15 18 -8 19 -10 20 -10 5 -1 -14 -4 -16 -14 -7 -8 6 -18 7 -22 3 -5 -4
-5 -1 0 7 5 8 4 12 -1 8 -6 -3 -11 6 -12 20 -3 33 -12 44 -12 15 0 -11 -4 -24
-10 -27 -12 -8 -13 -3 -1 28 7 17 6 24 -4 24 -7 0 -10 -8 -7 -21 5 -19 4 -20
-13 -6 -17 13 -18 13 -10 0 8 -13 7 -13 -10 0 -10 8 -16 10 -13 5 4 -6 2 -17
-3 -25 -8 -12 -9 -10 -7 8 2 12 6 21 9 20 4 -2 15 5 25 14 11 9 24 17 29 17 6
0 11 12 13 26 2 14 7 23 11 20 5 -2 6 -15 4 -28z m-6 -171 c-6 -10 27 -34 43
-31 12 2 17 -1 14 -10 -3 -7 0 -16 5 -20 6 -3 9 -11 5 -16 -3 -5 -1 -16 6 -24
14 -16 21 -93 9 -101 -6 -3 -6 -100 0 -123 1 -2 7 2 15 8 12 11 14 7 9 -21 -7
-45 -5 -79 6 -92 5 -6 7 -53 6 -104 -2 -86 7 -124 21 -88 9 22 23 20 17 -2 -3
-13 -13 -18 -31 -17 -23 1 -27 6 -28 34 -1 24 1 30 8 20 7 -10 8 -9 4 6 -17
65 -18 78 -9 72 13 -8 10 62 -4 88 -11 21 -10 47 1 80 5 14 3 13 -9 -5 -16
-24 -16 -24 -12 -3 3 13 0 26 -5 30 -7 4 -8 1 -3 -8 5 -8 4 -11 -1 -6 -5 5 -9
40 -10 78 0 38 3 63 8 56 6 -9 8 -8 9 3 1 8 0 20 -1 25 -2 6 -4 22 -5 37 -1
15 -5 31 -10 35 -4 5 -5 2 0 -6 6 -10 4 -12 -4 -7 -7 5 -10 14 -7 22 3 7 1 16
-5 20 -6 3 -8 12 -5 19 3 9 -2 12 -15 10 -13 -3 -17 0 -12 8 4 7 0 6 -10 -2
-15 -12 -17 -11 -18 5 0 18 -1 18 -9 -1 -5 -11 -9 -15 -10 -10 0 6 -8 -3 -16
-18 -13 -24 -13 -31 -2 -45 11 -13 11 -14 -1 -7 -9 5 -12 4 -7 -3 4 -6 0 -24
-9 -39 -15 -26 -15 -27 -9 -3 4 13 8 42 9 63 2 20 8 43 14 51 6 7 10 15 8 17
-1 2 0 3 2 2 11 -7 31 22 32 46 0 25 0 26 9 3 5 -12 8 -24 7 -26z m1511 -59
c2 -17 4 -44 5 -59 1 -16 8 -28 14 -28 7 0 13 -5 13 -11 0 -5 -5 -7 -10 -4 -7
4 -9 -3 -6 -19 3 -17 1 -24 -6 -20 -6 4 -8 -1 -3 -15 4 -13 2 -21 -5 -21 -7 0
-10 16 -6 48 l5 47 -11 -49 c-8 -39 -8 -50 3 -57 11 -7 11 -9 1 -9 -7 0 -11
-4 -8 -9 6 -10 -16 -61 -26 -61 -5 0 -8 -9 -8 -20 0 -11 -5 -20 -11 -20 -5 0
-7 -5 -3 -12 4 -7 3 -8 -4 -4 -7 4 -12 19 -11 34 0 24 1 25 9 7 8 -16 9 -14 5
10 -2 17 -4 35 -4 40 -1 6 -6 2 -12 -9 -9 -15 -13 -16 -20 -5 -7 12 -9 11 -9
-1 0 -13 -2 -13 -9 -1 -5 8 -7 26 -4 40 4 25 4 25 -11 6 -9 -13 -11 -24 -5
-31 6 -7 3 -26 -6 -50 l-15 -39 5 35 c4 25 2 31 -5 20 -5 -8 -10 -23 -10 -33
0 -10 -5 -15 -10 -12 -7 4 -4 19 10 42 16 28 18 38 9 50 -10 11 -9 17 1 26 10
10 12 8 6 -8 -5 -16 -2 -15 13 5 21 27 20 28 37 -29 4 -11 9 -10 25 5 11 10
18 23 15 30 -3 7 -2 15 2 18 3 4 7 12 8 19 1 7 6 31 12 53 5 23 8 61 7 84 -1
23 1 37 5 30 5 -8 9 -7 13 4 9 23 12 20 15 -17z m-1481 -7 c6 -8 9 -18 7 -22
-3 -4 3 -19 12 -33 9 -14 13 -25 10 -25 -4 0 -2 -9 4 -20 8 -15 8 -20 -2 -18
-18 4 -18 -128 0 -165 8 -15 15 -33 16 -40 1 -7 8 -29 15 -49 8 -23 9 -44 3
-55 -10 -21 -10 -133 0 -149 13 -19 60 -10 69 14 5 12 4 24 -1 27 -12 7 -5 40
14 67 l16 22 0 -29 c0 -18 -3 -25 -8 -18 -5 7 -9 -5 -9 -30 -2 -62 -5 -76 -16
-74 -5 1 -11 -9 -13 -23 -4 -24 -4 -24 11 -5 16 19 16 19 10 -5 -5 -19 -4 -22
4 -10 9 13 11 12 11 -5 1 -16 4 -13 15 10 l14 30 -2 -35 c-1 -23 2 -34 11 -32
6 1 12 -4 12 -10 0 -9 4 -8 10 2 8 12 10 12 11 -5 l0 -20 9 20 c8 18 9 18 10
-5 l2 -25 8 25 c7 23 10 22 14 -5 0 -5 5 -11 10 -12 5 -1 13 -7 17 -15 7 -10
9 -10 9 2 1 12 3 11 11 -2 13 -23 44 -24 35 -2 -3 9 -2 12 5 9 6 -4 8 -13 5
-20 -3 -9 2 -12 16 -10 16 3 18 1 11 -6 -15 -15 -115 19 -208 70 -58 31 -70
42 -70 63 0 13 -5 25 -11 25 -6 0 -9 -9 -6 -20 4 -17 3 -18 -17 -5 -12 7 -31
28 -42 45 -16 26 -18 36 -9 50 10 16 11 16 7 -3 -3 -12 -1 -28 4 -35 5 -8 9
-9 9 -4 7 82 7 96 -1 84 -14 -23 -10 5 6 44 16 40 20 60 6 38 -6 -9 -9 -5 -9
15 0 35 -9 74 -18 83 -4 3 -4 -2 -1 -11 3 -10 1 -20 -4 -24 -7 -4 -9 6 -6 30
3 20 0 39 -6 43 -5 3 -7 1 -3 -5 3 -6 2 -13 -3 -16 -9 -6 -7 142 2 207 2 15 0
30 -6 34 -6 4 -7 1 -2 -7 5 -9 4 -11 -4 -6 -6 4 -11 13 -10 19 1 7 -1 20 -6
30 -7 17 -8 17 -22 0 -14 -17 -14 -17 -9 0 7 24 -1 21 -15 -4 -6 -12 -7 -19
-1 -15 5 3 8 -5 7 -17 0 -12 3 -30 8 -40 5 -10 6 -21 3 -24 -3 -3 -10 5 -15
18 -6 14 -10 18 -11 9 -1 -8 -4 -28 -7 -45 -3 -16 -5 -49 -6 -72 -1 -23 -4
-40 -8 -37 -4 2 -5 -6 -1 -18 3 -14 2 -19 -7 -14 -6 4 -8 12 -5 18 4 6 2 8 -4
4 -6 -3 -9 -15 -7 -26 3 -13 0 -18 -7 -14 -6 4 -8 3 -4 -4 3 -6 2 -13 -4 -17
-5 -3 -10 1 -10 9 0 8 5 18 10 21 6 4 7 11 4 17 -4 6 0 14 7 19 8 4 15 16 16
26 1 10 5 32 8 48 3 17 7 41 9 55 1 14 8 35 14 47 8 14 9 24 2 28 -14 9 -12
21 4 38 19 18 57 17 73 -3z m-22 -31 c-4 -5 0 -18 8 -30 11 -14 12 -31 7 -57
-11 -51 -7 -177 6 -175 5 1 10 -10 9 -25 0 -16 5 -26 13 -25 6 2 12 0 13 -5 6
-44 5 -82 -3 -105 -8 -20 -7 -31 3 -44 9 -10 9 -14 2 -10 -15 9 -37 -29 -29
-51 3 -9 -26 17 -64 58 -39 41 -70 81 -70 88 0 6 -4 12 -9 12 -17 0 -81 123
-71 136 6 6 7 13 4 16 -3 3 0 9 7 14 9 5 11 1 7 -14 -4 -12 -2 -25 4 -28 5 -3
7 -13 3 -21 -3 -9 6 -30 19 -48 14 -18 22 -36 18 -40 -4 -5 -1 -5 6 -1 7 4 12
2 12 -6 0 -10 3 -9 11 2 9 12 10 12 5 -3 -4 -11 2 -29 13 -43 12 -16 21 -20
23 -12 3 7 11 -2 19 -20 7 -18 18 -32 22 -32 5 0 5 -4 2 -10 -3 -6 1 -7 10 -4
11 5 14 2 9 -12 -5 -15 -4 -16 4 -4 6 8 8 18 5 24 -4 5 -1 6 7 1 8 -5 11 -4 7
2 -4 6 0 27 8 47 17 40 19 58 5 36 -7 -11 -9 -7 -6 17 2 17 -1 37 -5 45 -7 10
-9 10 -9 -2 0 -13 -2 -13 -9 -1 -5 8 -7 26 -4 40 4 25 4 25 -11 6 -9 -11 -16
-15 -16 -10 0 6 6 17 13 24 6 8 7 11 1 8 -10 -6 -11 49 -1 181 2 29 1 55 -4
57 -4 3 -6 -10 -3 -29 2 -19 0 -37 -5 -40 -5 -3 -9 4 -9 17 -1 12 -2 33 -4 47
-5 28 9 53 23 44 5 -3 7 -10 4 -15z m-15 -102 c6 2 6 -7 1 -20 -4 -12 -7 -58
-7 -102 1 -65 4 -79 16 -77 8 2 12 0 8 -3 -9 -9 10 -47 20 -41 10 6 8 -74 -1
-101 -11 -32 -22 -29 -47 12 -12 19 -26 33 -30 30 -11 -7 -25 15 -25 40 0 11
-5 19 -12 18 -20 -4 -64 62 -57 82 7 16 8 16 16 -5 8 -22 9 -22 28 -5 11 10
17 22 13 28 -3 5 -1 7 5 3 16 -10 24 11 29 78 7 108 5 100 21 79 7 -10 17 -17
22 -16z m1441 -121 c-13 -15 -12 -76 1 -76 4 0 8 -5 8 -11 0 -5 -4 -7 -10 -4
-5 3 -10 -1 -10 -9 0 -9 -5 -16 -11 -16 -5 0 -8 -4 -5 -8 6 -11 -137 -178
-149 -174 -4 2 -12 -3 -17 -12 -5 -9 -13 -14 -19 -11 -5 4 -9 0 -9 -8 0 -16
-18 -34 -39 -39 -7 -2 -24 -13 -37 -26 -13 -13 -29 -20 -34 -17 -6 3 -10 2
-10 -4 0 -10 -38 -27 -52 -23 -5 1 -8 -3 -8 -9 0 -5 -4 -8 -9 -5 -5 4 -11 1
-13 -6 -3 -7 -7 -4 -12 7 -4 11 -4 16 0 12 4 -4 16 0 26 10 14 13 18 13 18 2
0 -11 2 -12 9 -1 4 8 12 14 17 15 4 1 7 15 5 31 -2 17 1 26 7 22 6 -3 8 -16 6
-29 -4 -20 -4 -21 5 -2 l10 20 1 -20 c1 -19 2 -18 10 3 5 12 12 22 16 22 3 0
3 -7 0 -16 -3 -9 -2 -12 5 -9 6 4 8 13 6 19 -3 7 1 13 9 14 8 1 20 3 28 4 8 1
12 10 9 22 -3 21 -3 21 7 1 9 -17 9 -15 5 10 -4 19 -2 25 3 17 7 -11 10 -10
16 3 3 9 11 13 17 9 8 -5 9 -3 4 6 -6 9 -4 11 5 5 9 -6 11 -4 5 6 -8 12 -6 12
9 0 14 -12 17 -12 14 -1 -2 8 4 14 12 15 8 0 14 8 12 18 -2 12 2 15 13 10 12
-4 16 -1 13 13 -2 11 2 18 9 17 7 -2 10 3 7 10 -2 7 3 21 11 32 16 19 16 19
10 -5 -4 -17 1 -12 17 15 12 22 21 47 20 55 -3 13 -2 13 9 0 9 -13 10 -12 5 3
-3 10 -2 16 3 13 5 -3 5 9 1 29 -4 19 -5 37 -1 41 3 4 1 4 -5 1 -6 -3 -9 -19
-6 -35 2 -16 -1 -33 -7 -36 -7 -5 -9 4 -4 26 3 18 3 30 -1 26 -4 -3 -9 -28
-11 -55 -4 -70 -4 -69 -15 -53 -8 12 -10 12 -10 1 0 -8 -3 -11 -6 -8 -4 4 -2
13 5 21 6 8 11 18 9 22 -1 5 4 30 11 56 10 37 17 46 32 43 10 -2 21 0 24 6 4
5 9 9 12 9 3 0 0 -6 -6 -14z m-854 -182 c13 3 18 -3 20 -21 2 -44 21 -50 37
-12 20 49 27 52 54 27 13 -13 27 -22 30 -20 4 1 9 -14 12 -35 7 -45 16 -62 33
-59 23 3 36 16 42 46 4 16 11 28 18 27 6 -1 19 14 28 33 10 19 18 30 19 23 0
-6 3 -20 6 -30 5 -15 4 -16 -5 -3 -9 12 -10 8 -5 -15 7 -28 6 -29 -11 -15 -12
9 -16 10 -11 2 5 -8 3 -11 -6 -10 -8 2 -12 -5 -10 -17 2 -17 1 -18 -9 -5 -9
13 -10 12 -5 -3 3 -11 3 -24 -1 -30 -4 -7 -9 -23 -11 -36 -6 -49 -22 -58 -17
-11 3 37 3 39 -4 15 -7 -23 -9 -25 -11 -10 -1 11 -2 24 -1 29 1 5 -5 4 -13 -4
-14 -10 -16 -10 -16 6 -1 14 -5 11 -16 -11 -12 -26 -13 -26 -8 -5 3 14 5 31 5
38 -3 84 -3 87 -12 65 -5 -13 -11 -23 -14 -23 -4 0 -4 10 0 23 5 21 5 20 -10
-3 -15 -23 -16 -24 -12 -3 3 12 -1 27 -8 33 -11 9 -12 5 -9 -19 3 -16 0 -32
-7 -36 -8 -5 -9 0 -5 16 6 20 4 19 -10 -5 -13 -23 -18 -26 -26 -15 -6 10 -7 6
-3 -11 6 -20 5 -23 -6 -13 -7 7 -12 26 -12 43 0 21 -3 27 -10 18 -6 -9 -7 -7
-4 8 2 12 -1 21 -8 21 -7 0 -10 -8 -7 -20 3 -14 1 -18 -7 -13 -6 4 -9 11 -6
16 3 5 1 11 -4 15 -6 3 -8 -4 -6 -16 4 -17 2 -19 -10 -9 -8 7 -16 10 -16 6 -1
-3 -3 -10 -4 -16 -1 -5 -4 -18 -5 -27 -1 -11 -6 -7 -11 12 -7 27 -8 26 -4 -9
3 -25 1 -36 -5 -30 -6 6 -11 22 -12 36 -3 40 -14 25 -12 -16 1 -20 -1 -34 -6
-31 -8 5 -5 -39 4 -54 4 -5 2 -12 -4 -16 -5 -3 -11 4 -11 17 l-2 23 -4 -23
c-2 -12 -9 -20 -14 -17 -5 4 -5 14 1 26 6 11 8 24 5 29 -3 5 0 12 6 15 5 4 8
14 5 22 -11 27 4 62 25 58 10 -2 21 1 24 6 4 5 11 7 16 4 5 -4 17 7 27 24 15
27 18 28 24 11 4 -11 14 -18 25 -16z m-210 -146 c2 -17 8 -37 14 -45 6 -7 8
-13 4 -13 -4 0 -2 -6 4 -14 13 -15 28 -16 49 -2 8 5 17 -3 27 -27 9 -22 21
-34 31 -33 21 3 35 27 29 51 -3 11 2 5 10 -13 13 -28 18 -32 30 -22 8 7 13 16
10 20 -3 5 3 7 12 6 21 -3 42 -58 35 -92 -4 -21 -10 -24 -53 -24 -27 0 -49 4
-49 10 0 5 -7 7 -16 3 -14 -5 -16 -1 -12 25 2 17 1 29 -4 26 -4 -3 -8 -16 -8
-30 0 -13 -4 -24 -9 -24 -6 0 -8 17 -6 38 4 32 3 33 -3 7 -10 -40 -45 -49 -38
-10 3 15 8 30 12 34 4 3 4 -7 2 -22 -3 -16 -2 -25 3 -20 8 8 13 51 10 82 -1
11 -5 10 -16 -5 -11 -14 -14 -15 -15 -4 0 13 -1 13 -10 0 -5 -9 -5 -19 1 -27
6 -7 8 -17 4 -23 -5 -8 -12 -4 -22 9 -14 20 -40 20 -28 0 4 -5 2 -9 -3 -9 -6
0 -12 7 -15 15 -4 8 -15 12 -27 10 -16 -3 -20 0 -16 10 3 8 1 17 -5 20 -10 7
-5 53 7 64 4 3 4 -10 0 -29 -4 -27 -3 -31 5 -20 9 13 10 13 6 -1 -3 -9 -1 -22
4 -30 7 -12 9 -12 9 1 1 12 3 12 14 -3 13 -17 14 -17 20 0 6 13 9 14 15 4 6
-10 10 -9 14 4 4 9 3 14 -2 11 -13 -9 -34 22 -27 39 3 9 2 13 -3 10 -6 -3 -8
7 -5 22 5 27 5 27 -10 8 -12 -15 -15 -16 -16 -5 0 12 -2 13 -9 1 -11 -18 -23
2 -15 24 6 16 8 16 16 1 12 -21 28 -11 28 16 0 31 13 13 17 -24z"/>
</g>
</svg>
